# xmcd
#
# Track frame offsets:
#	150
#	21151
#	43142
#	65338
#	77370
#	94645
#	109915
#	129465
#	140373
#	160391
#	190133
#	211427
#	228503
#	268750
#
# Disc length: 4015 seconds
#
# Revision: 1
# Processed by: cddbd v1.5.2PL0 Copyright (c) Steve Scherf et al.
# Submitted via: audiograbber 1.83.01
#
DISCID=c00fad0e
DTITLE=Eagles - Take It Easy - Live In The USA CD01
DYEAR=2010
DGENRE=Rock
TTITLE0=Peaceful Easy Feeling
TTITLE1=Already Gone
TTITLE2=Good Day In Hell
TTITLE3=Silver Threads and Golden Needles
TTITLE4=Desperado
TTITLE5=It Doesn't Matter Anymore
TTITLE6=Midnight Flyer
TTITLE7=Twenty One
TTITLE8=Ol' 55
TTITLE9=Your Bright Baby Blues
TTITLE10=Looking Into You
TTITLE11=James Dean
TTITLE12=Doolin-Dalton - Desperado Reprise
TTITLE13=Take It Easy
EXTD=
EXTT0=
EXTT1=
EXTT2=
EXTT3=
EXTT4=
EXTT5=
EXTT6=
EXTT7=
EXTT8=
EXTT9=
EXTT10=
EXTT11=
EXTT12=
EXTT13=
PLAYORDER=
